# xmcd CD database file
#
# Track frame offsets:
#	150
#	15589
#	23481
#	44180
#	53890
#	71311
#	82177
#	96425
#	109876
#	132501
#	147731
#	159987
#	178255
#	196004
#
# Disc length: 2815 seconds
#
# Revision: 0
# Processed by: cddbd v1.5.2PL0 Copyright (c) Steve Scherf et al.
# Submitted via: CDex 1.70beta2
#
DISCID=c90afd0e
DTITLE=Dillabough, Lyle - Cdn. - ON - Carlton Place - Troubadour
DYEAR=2006
DGENRE=Country
TTITLE0=Proud Canadians
TTITLE1=This It It!
TTITLE2=One Lone Voice
TTITLE3=The Glory Road
TTITLE4=Matthew
TTITLE5=Granpaw Was A Sailor
TTITLE6=A Most Unusal Way
TTITLE7=Midnight Moonlight Dreams
TTITLE8=New England In the Rain
TTITLE9=Sail With Me Anna Marie
TTITLE10=Ode To Harry Chapin
TTITLE11=Past Glories
TTITLE12=Free Me
TTITLE13=My Heart's Upon the Wind
EXTD=YEAR: 2006
EXTT0=
EXTT1=
EXTT2=
EXTT3=
EXTT4=
EXTT5=
EXTT6=
EXTT7=
EXTT8=
EXTT9=
EXTT10=
EXTT11=
EXTT12=
EXTT13=
PLAYORDER=
